<?xml version="1.0" encoding="utf-8"?>
<svg width="100" height="100" viewBox="52.476 31.911 225.891 237.674" xmlns="http://www.w3.org/2000/svg">
  <g transform="matrix(0.5369709134101868, 0, 0, 0.5661640167236328, -102.98377227783203, 34.246158599853516)" style="">
    <svg viewBox="0 0 370 247" data-background-color="#ffffff" preserveAspectRatio="xMidYMid meet" height="667" width="1000" xmlns="http://www.w3.org/2000/svg">
      <g id="tight-bounds" transform="matrix(1,0,0,1,0.035155070234992536,-0.09999999999999432)">
        <svg viewBox="0 0 369.92968987102375 247.2" height="247.2" width="369.92968987102375">
          <g>
            <svg viewBox="0 0 395.52000000000004 264.30034321951416" height="247.2" width="369.92968987102375">
              <g transform="matrix(1,0,0,1,0,195.95795072537808)">
                <svg viewBox="0 0 395.52000000000004 68.34239249413605" height="68.34239249413605" width="395.52000000000004">
                  <g id="textblocktransform">
                    <svg viewBox="0 0 395.52000000000004 68.34239249413605" height="68.34239249413605" width="395.52000000000004" id="textblock">
                      <g>
                        <svg viewBox="0 0 395.52000000000004 68.34239249413605" height="68.34239249413605" width="395.52000000000004">
                          <g transform="matrix(1,0,0,1,0,0)">
                            <svg width="395.52000000000004" viewBox="0.4000000059604645 -32.650001525878906 191.8400115966797 33.150001525878906" height="68.34239249413605" data-palette-color="#ffffff">
                              <path d="M19.35-32.2L29.2 0 22.3 0 21.5-4.2 20.65-7.2 14.35-7.35 8.8-7.2 7.95-4.55 7.1 0 0.4 0 11.3-32.2 19.35-32.2ZM14.85-12.35L19.2-12.45 15.4-25.85 14.95-25.85 10.55-12.45 14.85-12.35ZM50.8-12.8Q54.7-6.6 58.55-1.6L58.55-1.6 58.45-0.85Q55.2 0.3 51.8 0.5L51.8 0.5 51.1-0.05Q47.5-6.25 45.25-10.85L45.25-10.85 40.4-10.85 40.4-10.2 40.7 0 33.9 0 34.25-9.6 33.9-32.2 46.25-32.25Q51.3-32.25 54.05-29.78 56.8-27.3 56.8-22.7L56.8-22.7Q56.8-19.6 55.22-17.03 53.65-14.45 50.8-12.8L50.8-12.8ZM40.7-27.05L40.5-16.1 45.45-15.9Q49.7-17.35 49.7-22.05L49.7-22.05Q49.7-24.6 48.32-25.88 46.95-27.15 44.1-27.25L44.1-27.25 40.7-27.05ZM82.3-32.2L82.7-31.65 82.3-26.6 76.25-26.9 74.25-26.9 74-10.2 74.3 0 67.5 0 67.84-9.6 67.59-26.9 65.59-26.9 59.45-26.6 59-27.15 59.45-32.2 82.3-32.2ZM98.49-32.65Q105.29-32.65 108.97-28.53 112.64-24.4 112.64-16.8L112.64-16.8Q112.64-8.5 108.64-4 104.64 0.5 97.34 0.5L97.34 0.5Q90.59 0.5 86.92-3.73 83.24-7.95 83.24-15.7L83.24-15.7Q83.24-23.85 87.22-28.25 91.19-32.65 98.49-32.65L98.49-32.65ZM97.89-27.2Q93.89-27.2 92.09-24.7 90.29-22.2 90.29-16.55L90.29-16.55Q90.29-10.1 92.07-7.35 93.84-4.6 97.94-4.6L97.94-4.6Q101.94-4.6 103.74-7.13 105.54-9.65 105.54-15.4L105.54-15.4Q105.54-21.75 103.77-24.48 101.99-27.2 97.89-27.2L97.89-27.2ZM130.79-32.6Q135.49-32.6 139.24-30.65L139.24-30.65 138.04-25 137.49-24.75Q135.99-25.8 134.19-26.4 132.39-27 130.49-27L130.49-27Q122.54-27 122.54-16.55L122.54-16.55Q122.54-10.9 124.62-8.08 126.69-5.25 130.69-5.25L130.69-5.25Q132.54-5.25 134.52-5.83 136.49-6.4 138.09-7.4L138.09-7.4 138.69-7.05 138.14-1.3Q134.34 0.45 130.14 0.45L130.14 0.45Q122.94 0.45 119.17-3.75 115.39-7.95 115.39-15.8L115.39-15.8Q115.39-23.8 119.42-28.2 123.44-32.6 130.79-32.6L130.79-32.6ZM157.14-17Q162.49-9.55 169.49-1.4L169.49-1.4 169.39-0.65Q166.59 0.05 162.79 0.5L162.79 0.5 161.99 0.1Q155.44-8.6 150.34-16.6L150.34-16.6 150.24-10.2 150.49 0 143.74 0 144.09-9.6 143.74-32.2 150.59-32.2 150.34-17.25 159.39-29.1 161.24-32.2 168.54-32.2 157.14-17ZM183.29-32.6Q187.39-32.6 191.44-30.95L191.44-30.95 190.34-25.1 189.34-24.7Q187.64-25.9 185.81-26.6 183.99-27.3 182.49-27.3L182.49-27.3Q180.49-27.3 179.29-26.23 178.09-25.15 178.09-23.75L178.09-23.75Q178.09-22.3 179.41-21.3 180.74-20.3 183.59-18.95L183.59-18.95Q186.34-17.7 188.06-16.63 189.79-15.55 191.01-13.8 192.24-12.05 192.24-9.5L192.24-9.5Q192.24-6.75 190.74-4.48 189.24-2.2 186.49-0.88 183.74 0.45 180.14 0.45L180.14 0.45Q175.39 0.45 170.59-1.6L170.59-1.6 171.54-7.9 172.29-8.3Q174.29-6.55 176.66-5.63 179.04-4.7 180.89-4.7L180.89-4.7Q183.09-4.7 184.31-5.78 185.54-6.85 185.54-8.35L185.54-8.35Q185.54-9.95 184.21-10.95 182.89-11.95 179.94-13.35L179.94-13.35Q177.24-14.55 175.54-15.6 173.84-16.65 172.64-18.4 171.44-20.15 171.44-22.65L171.44-22.65Q171.44-25.45 172.94-27.73 174.44-30 177.14-31.3 179.84-32.6 183.29-32.6L183.29-32.6Z" opacity="1" transform="matrix(1,0,0,1,0,0)" fill="#ffffff" class="wordmark-text-0" data-fill-palette-color="primary" id="text-0"/>
                            </svg>
                          </g>
                        </svg>
                      </g>
                    </svg>
                  </g>
                </svg>
              </g>
              <g transform="matrix(1,0,0,1,115.91502328775664,0)">
                <svg viewBox="0 0 163.68995342448676 163.68995342448676" height="163.68995342448676" width="163.68995342448676">
                  <g>
                    <svg/>
                  </g>
                  <g id="icon-0">
                    <svg viewBox="0 0 163.68995342448676 163.68995342448676" height="163.68995342448676" width="163.68995342448676">
                      <g>
                        <path d="M0 81.845c0-45.202 36.643-81.845 81.845-81.845 45.202 0 81.845 36.643 81.845 81.845 0 45.202-36.643 81.845-81.845 81.845-45.202 0-81.845-36.643-81.845-81.845zM81.845 157.527c41.798 0 75.682-33.884 75.682-75.682 0-41.798-33.884-75.682-75.682-75.682-41.798 0-75.682 33.884-75.682 75.682 0 41.798 33.884 75.682 75.682 75.682z" data-fill-palette-color="accent" fill="#0074d9" stroke="transparent"/>
                        <ellipse rx="81.02652694512095" ry="81.02652694512095" cx="81.84497671224338" cy="81.84497671224338" fill="#0074d9" stroke="transparent" stroke-width="0" fill-opacity="1" data-fill-palette-color="accent"/>
                      </g>
                      <g transform="matrix(1,0,0,1,46.14373318148162,36.97182394648651)">
                        <svg viewBox="0 0 71.40248706152352 89.74630553151374" height="89.74630553151374" width="71.40248706152352">
                          <g>
                            <svg xmlns="http://www.w3.org/2000/svg" data-name="Layer 1" viewBox="22.3799991607666 15.50999927520752 48.5 60.96000289916992" x="0" y="0" height="89.74630553151374" width="71.40248706152352" class="icon-s-0" data-fill-palette-color="quaternary" id="s-0">
                              <path d="M46.63 76.47L22.38 23.57l24.25-8.06 24.25 8.06ZM25.82 25.06L46.63 70.47 67.44 25.06 46.63 18.15Z" fill="#ffffff" data-fill-palette-color="quaternary"/>
                              <path d="M30.25 27.72a1 1 0 0 1-1-1 1 1 0 0 1 0.29-0.7 1 1 0 0 1 1.41 0 1 1 0 0 1 0.3 0.7 1 1 0 0 1-0.3 0.71 1 1 0 0 1-0.32 0.22A1 1 0 0 1 30.25 27.72Z" fill="#ffffff" data-fill-palette-color="quaternary"/>
                              <path d="M43.93 33.16a1 1 0 0 1-0.57-1.3h0a1 1 0 0 1 1.3-0.57h0a1 1 0 0 1 0.57 1.3h0a1 1 0 0 1-0.93 0.64h0A1.16 1.16 0 0 1 43.93 33.16Z" fill="#ffffff" data-fill-palette-color="quaternary"/>
                              <path d="M48 32.59a1 1 0 0 1 0.56-1.3h0a1 1 0 0 1 1.3 0.57h0a1 1 0 0 1-0.57 1.29h0a0.93 0.93 0 0 1-0.36 0.07h0A1 1 0 0 1 48 32.59Z" fill="#ffffff" data-fill-palette-color="quaternary"/>
                              <path d="M39.25 31.32A1 1 0 0 1 38.68 30h0a1 1 0 0 1 1.3-0.57h0a1 1 0 0 1 0.56 1.3h0a1 1 0 0 1-0.93 0.63h0A0.92 0.92 0 0 1 39.25 31.32Z" fill="#ffffff" data-fill-palette-color="quaternary"/>
                              <path d="M52.73 30.75a1 1 0 0 1 0.57-1.29h0a1 1 0 0 1 1.29 0.56h0a1 1 0 0 1-0.57 1.3h0a1.1 1.1 0 0 1-0.36 0.07h0A1 1 0 0 1 52.73 30.75Z" fill="#ffffff" data-fill-palette-color="quaternary"/>
                              <path d="M34.56 29.49a1 1 0 0 1-0.56-1.3h0a1 1 0 0 1 1.29-0.56h0a1 1 0 0 1 0.57 1.29h0a1 1 0 0 1-0.93 0.64h0A1 1 0 0 1 34.56 29.49Z" fill="#ffffff" data-fill-palette-color="quaternary"/>
                              <path d="M57.41 28.92a1 1 0 0 1 0.57-1.3h0a1 1 0 0 1 1.29 0.57h0a1 1 0 0 1-0.56 1.29h0a1 1 0 0 1-0.37 0.07h0A1 1 0 0 1 57.41 28.92Z" fill="#ffffff" data-fill-palette-color="quaternary"/>
                              <path d="M63 27.72a1 1 0 0 1-0.71-0.29 1.2 1.2 0 0 1-0.22-0.33 1 1 0 0 1-0.07-0.38 1 1 0 0 1 0.29-0.71 1 1 0 0 1 1.09-0.22 1.21 1.21 0 0 1 0.32 0.22 1 1 0 0 1 0.3 0.71 1 1 0 0 1-0.08 0.38 1 1 0 0 1-0.22 0.33 1 1 0 0 1-0.7 0.29Z" fill="#ffffff" data-fill-palette-color="quaternary"/>
                              <path d="M46.63 37.69a1 1 0 0 1-0.71-0.3 1 1 0 0 1-0.21-0.32 1 1 0 0 1-0.08-0.38 1 1 0 0 1 0.29-0.71 1 1 0 0 1 1.42 0 1 1 0 0 1 0.29 0.71 1 1 0 0 1-1 1Z" fill="#ffffff" data-fill-palette-color="quaternary"/>
                              <path d="M45.63 59.66a1 1 0 0 1 1-1h0a1 1 0 0 1 1 1h0a1 1 0 0 1-1 1h0A1 1 0 0 1 45.63 59.66Z" fill="#ffffff" data-fill-palette-color="quaternary"/>
                              <path d="M45.63 55.06a1 1 0 0 1 1-1h0a1 1 0 0 1 1 1h0a1 1 0 0 1-1 1h0A1 1 0 0 1 45.63 55.06Z" fill="#ffffff" data-fill-palette-color="quaternary"/>
                              <path d="M45.63 50.47a1 1 0 0 1 1-1h0a1 1 0 0 1 1 1h0a1 1 0 0 1-1 1h0A1 1 0 0 1 45.63 50.47Z" fill="#ffffff" data-fill-palette-color="quaternary"/>
                              <path d="M45.63 45.87a1 1 0 0 1 1-1h0a1 1 0 0 1 1 1h0a1 1 0 0 1-1 1h0A1 1 0 0 1 45.63 45.87Z" fill="#ffffff" data-fill-palette-color="quaternary"/>
                              <path d="M45.63 41.28a1 1 0 0 1 1-1h0a1 1 0 0 1 1 1h0a1 1 0 0 1-1 1h0A1 1 0 0 1 45.63 41.28Z" fill="#ffffff" data-fill-palette-color="quaternary"/>
                              <path d="M46.63 65.25a1.05 1.05 0 0 1-0.71-0.29 1 1 0 0 1-0.29-0.71 1 1 0 1 1 1 1Z" fill="#ffffff" data-fill-palette-color="quaternary"/>
                            </svg>
                          </g>
                        </svg>
                      </g>
                    </svg>
                  </g>
                </svg>
              </g>
              <g/>
            </svg>
          </g>
        </svg>
        <rect width="369.92968987102375" height="247.2" fill="none" stroke="none" visibility="hidden"/>
      </g>
    </svg>
  </g>
</svg>
